solid Exported from Blender-2.82 (sub 7)
facet normal -1.000000 -0.000000 0.000000
outer loop
vertex -237.132065 412.132019 0.000000
vertex -237.132004 -412.132080 0.000000
vertex -237.132065 412.132019 1.000000
endloop
endfacet
facet normal -1.000000 -0.000000 0.000000
outer loop
vertex -237.132065 412.132019 1.000000
vertex -237.132004 -412.132080 0.000000
vertex -237.132004 -412.132080 1.000000
endloop
endfacet
facet normal 0.000000 0.000000 1.000000
outer loop
vertex -237.132065 412.132019 1.000000
vertex -237.132004 -412.132080 1.000000
vertex -25.000017 200.000000 1.000000
endloop
endfacet
facet normal 0.000000 0.000000 1.000000
outer loop
vertex -25.000017 200.000000 1.000000
vertex -237.132004 -412.132080 1.000000
vertex -24.999983 -200.000000 1.000000
endloop
endfacet
facet normal -0.707107 0.707106 0.000000
outer loop
vertex -237.132065 412.132019 300.000000
vertex -187.132080 462.132019 300.000000
vertex -237.132065 412.132019 1.000000
endloop
endfacet
facet normal -0.707107 0.707107 0.000000
outer loop
vertex -237.132065 412.132019 1.000000
vertex -187.132080 462.132019 300.000000
vertex -187.132080 462.132019 0.000000
endloop
endfacet
facet normal -0.707107 0.707107 0.000000
outer loop
vertex -237.132065 412.132019 1.000000
vertex -187.132080 462.132019 0.000000
vertex -237.132065 412.132019 0.000000
endloop
endfacet
facet normal -0.707107 -0.707107 0.000000
outer loop
vertex -25.000017 200.000000 1.000000
vertex -25.000017 200.000000 300.000000
vertex -237.132065 412.132019 1.000000
endloop
endfacet
facet normal -0.707107 -0.707107 0.000000
outer loop
vertex -237.132065 412.132019 1.000000
vertex -25.000017 200.000000 300.000000
vertex -237.132065 412.132019 300.000000
endloop
endfacet
facet normal -1.000000 -0.000000 0.000000
outer loop
vertex -25.000017 200.000000 1.000000
vertex -24.999983 -200.000000 1.000000
vertex -25.000017 200.000000 300.000000
endloop
endfacet
facet normal -1.000000 -0.000000 0.000000
outer loop
vertex -25.000017 200.000000 300.000000
vertex -24.999983 -200.000000 1.000000
vertex -24.999983 -200.000000 300.000000
endloop
endfacet
facet normal -0.707107 0.707107 0.000000
outer loop
vertex -237.132004 -412.132080 1.000000
vertex -237.132004 -412.132080 300.000000
vertex -24.999983 -200.000000 1.000000
endloop
endfacet
facet normal -0.707107 0.707107 0.000000
outer loop
vertex -24.999983 -200.000000 1.000000
vertex -237.132004 -412.132080 300.000000
vertex -24.999983 -200.000000 300.000000
endloop
endfacet
facet normal 0.707107 -0.707107 0.000000
outer loop
vertex 25.000021 -250.000000 0.000000
vertex 25.000021 -250.000000 300.000000
vertex -187.131989 -462.132080 0.000000
endloop
endfacet
facet normal 0.707107 -0.707107 0.000000
outer loop
vertex -187.131989 -462.132080 0.000000
vertex 25.000021 -250.000000 300.000000
vertex -187.131989 -462.132080 300.000000
endloop
endfacet
facet normal -0.707107 -0.707107 0.000000
outer loop
vertex -237.132004 -412.132080 0.000000
vertex -187.131989 -462.132080 0.000000
vertex -237.132004 -412.132080 1.000000
endloop
endfacet
facet normal -0.707107 -0.707107 0.000000
outer loop
vertex -237.132004 -412.132080 1.000000
vertex -187.131989 -462.132080 0.000000
vertex -187.131989 -462.132080 300.000000
endloop
endfacet
facet normal -0.707107 -0.707107 0.000000
outer loop
vertex -237.132004 -412.132080 1.000000
vertex -187.131989 -462.132080 300.000000
vertex -237.132004 -412.132080 300.000000
endloop
endfacet
facet normal 0.707107 0.707107 0.000000
outer loop
vertex -187.132080 462.132019 0.000000
vertex -187.132080 462.132019 300.000000
vertex 24.999979 250.000000 0.000000
endloop
endfacet
facet normal 0.707107 0.707107 0.000000
outer loop
vertex 24.999979 250.000000 0.000000
vertex -187.132080 462.132019 300.000000
vertex 24.999979 250.000000 300.000000
endloop
endfacet
facet normal 1.000000 0.000000 0.000000
outer loop
vertex 24.999979 250.000000 300.000000
vertex 25.000021 -250.000000 300.000000
vertex 24.999979 250.000000 0.000000
endloop
endfacet
facet normal 1.000000 0.000000 0.000000
outer loop
vertex 24.999979 250.000000 0.000000
vertex 25.000021 -250.000000 300.000000
vertex 25.000021 -250.000000 0.000000
endloop
endfacet
facet normal 0.000000 0.000000 1.000000
outer loop
vertex -187.131989 -462.132080 300.000000
vertex 25.000021 -250.000000 300.000000
vertex -24.999983 -200.000000 300.000000
endloop
endfacet
facet normal 0.000000 0.000000 1.000000
outer loop
vertex -24.999983 -200.000000 300.000000
vertex 25.000021 -250.000000 300.000000
vertex 24.999979 250.000000 300.000000
endloop
endfacet
facet normal 0.000000 0.000000 1.000000
outer loop
vertex -24.999983 -200.000000 300.000000
vertex 24.999979 250.000000 300.000000
vertex -25.000017 200.000000 300.000000
endloop
endfacet
facet normal 0.000000 0.000000 1.000000
outer loop
vertex -25.000017 200.000000 300.000000
vertex 24.999979 250.000000 300.000000
vertex -187.132080 462.132019 300.000000
endloop
endfacet
facet normal -0.000000 0.000000 1.000000
outer loop
vertex -25.000017 200.000000 300.000000
vertex -187.132080 462.132019 300.000000
vertex -237.132065 412.132019 300.000000
endloop
endfacet
facet normal 0.000000 0.000000 1.000000
outer loop
vertex -24.999983 -200.000000 300.000000
vertex -237.132004 -412.132080 300.000000
vertex -187.131989 -462.132080 300.000000
endloop
endfacet
facet normal 0.000000 0.000000 -1.000000
outer loop
vertex -237.132004 -412.132080 0.000000
vertex -237.132065 412.132019 0.000000
vertex -187.131989 -462.132080 0.000000
endloop
endfacet
facet normal 0.000000 0.000000 -1.000000
outer loop
vertex -187.131989 -462.132080 0.000000
vertex -237.132065 412.132019 0.000000
vertex -187.132080 462.132019 0.000000
endloop
endfacet
facet normal 0.000000 0.000000 -1.000000
outer loop
vertex -187.131989 -462.132080 0.000000
vertex -187.132080 462.132019 0.000000
vertex 25.000021 -250.000000 0.000000
endloop
endfacet
facet normal 0.000000 0.000000 -1.000000
outer loop
vertex 25.000021 -250.000000 0.000000
vertex -187.132080 462.132019 0.000000
vertex 24.999979 250.000000 0.000000
endloop
endfacet
endsolid Exported from Blender-2.82 (sub 7)
